<svg xmlns="http://www.w3.org/2000/svg" width="32" height="32" viewBox="0 0 32 32">
    <g fill="none" fill-rule="evenodd">
        <g>
            <g>
                <g>
                    <g>
                        <g transform="translate(-340 -413) translate(122 215) translate(198 60) translate(10 130) translate(10 8)">
                            <rect width="21" height="20" x="5" y="6" fill="#29B2DC" rx="2"/>
                            <path fill="#FFF" fill-rule="nonzero" d="M9.388 22l1.084-3.41h4.02l.992 3.41h1.968l-3.904-12h-2.144L7.5 22h1.888zm4.656-4.994h-3.216l1.568-5.326h.08l1.568 5.326zM19.973 22.161c.517 0 .966-.092 1.345-.265.333-.16.621-.379.851-.678V22h1.219v-3.795c0-.724-.184-1.276-.552-1.656-.414-.437-1.07-.655-1.944-.655-.758 0-1.357.126-1.793.402-.518.299-.84.782-.966 1.438l1.299.103c.069-.31.242-.54.495-.69.218-.138.506-.195.873-.195.851 0 1.277.379 1.277 1.161v.23l-1.3.035c-.873.023-1.552.206-2.035.552-.529.356-.782.873-.782 1.54 0 .495.184.898.552 1.22.357.31.84.471 1.46.471zm.299-1c-.288 0-.518-.081-.702-.219-.184-.138-.265-.31-.265-.518 0-.712.518-1.08 1.564-1.104l1.208-.034v.299c0 .46-.184.84-.529 1.139-.345.287-.77.436-1.276.436z"/>
                        </g>
                    </g>
                </g>
            </g>
        </g>
    </g>
</svg>
